# xmcd
#
# Track frame offsets:
# 150
# 11027
# 26619
# 41020
# 56410
# 65205
# 82717
# 95115
# 111377
# 124460
#
# Disc length: 1826 seconds
#
#
# Revision: 5
# Processed by: cddbd v1.5.2PL0 Copyright (c) Steve Scherf et al.
# Submitted via: K3b 1.0.1
#
DISCID=8a07200a
DTITLE=Elis Regina - Elis (1973)
DYEAR=1973
DGENRE=MPB
TTITLE0=Oriente
TTITLE1=O Caçador de Esmeralda
TTITLE2=Doente Morena
TTITLE3=Agnus Sei
TTITLE4=Meio do Campo
TTITLE5=Cabaré
TTITLE6=Ladeira da Preguiça
TTITLE7=Folhas secas
TTITLE8=Comadre
TTITLE9=É Com Esse Que Eu Vou
EXTD=
EXTT0=
EXTT1=
EXTT2=
EXTT3=
EXTT4=
EXTT5=
EXTT6=
EXTT7=
EXTT8=
EXTT9=
PLAYORDER=
